<svg xmlns="http://www.w3.org/2000/svg" viewBox="0 0 840 500" font-family="Helvetica,Arial,sans-serif">
<rect width="840" height="500" fill="#ffffff"/>
<defs><marker id="ah" markerWidth="10" markerHeight="10" refX="8" refY="3" orient="auto" markerUnits="strokeWidth"><path d="M0,0 L8,3 L0,6 Z" fill="#5b6472"/></marker></defs>
<text x="420.0" y="34" text-anchor="middle" font-size="22" font-weight="700" fill="#1f2430">The Agentic Loop  +  Orchestrator / Subagents (hub-and-spoke)</text>
<line x1="190" y1="100" x2="330" y2="100" stroke="#5b6472" stroke-width="2" marker-end="url(#ah)"/>
<line x1="530" y1="100" x2="600" y2="100" stroke="#5b6472" stroke-width="2" marker-end="url(#ah)"/>
<rect x="547.4" y="88.0" width="35.2" height="18" rx="4" fill="#ffffff"/>
<text x="565.0" y="101.0" text-anchor="middle" font-size="11" fill="#5b6472">loop</text>
<line x1="700" y1="130" x2="700" y2="200" stroke="#5b6472" stroke-width="2" marker-end="url(#ah)"/>
<line x1="600" y1="230" x2="530" y2="230" stroke="#5b6472" stroke-width="2" marker-end="url(#ah)"/>
<rect x="533.8" y="218.0" width="62.4" height="18" rx="4" fill="#ffffff"/>
<text x="565.0" y="231.0" text-anchor="middle" font-size="11" fill="#5b6472">feedback</text>
<line x1="430" y1="200" x2="430" y2="130" stroke="#d97757" stroke-width="2" marker-end="url(#ah)"/>
<rect x="405.6" y="153.0" width="48.8" height="18" rx="4" fill="#ffffff"/>
<text x="430.0" y="166.0" text-anchor="middle" font-size="11" fill="#5b6472">repeat</text>
<line x1="330" y1="230" x2="190" y2="230" stroke="#5b6472" stroke-width="2" marker-end="url(#ah)"/>
<rect x="245.8" y="218.0" width="28.4" height="18" rx="4" fill="#ffffff"/>
<text x="260.0" y="231.0" text-anchor="middle" font-size="11" fill="#5b6472">yes</text>
<line x1="415" y1="385" x2="300" y2="420" stroke="#3b6fd4" stroke-width="2" marker-end="url(#ah)"/>
<rect x="326.3" y="390.5" width="62.4" height="18" rx="4" fill="#ffffff"/>
<text x="357.5" y="403.5" text-anchor="middle" font-size="11" fill="#5b6472">delegate</text>
<line x1="415" y1="385" x2="415" y2="420" stroke="#3b6fd4" stroke-width="2" marker-end="url(#ah)"/>
<line x1="415" y1="385" x2="625" y2="420" stroke="#3b6fd4" stroke-width="2" marker-end="url(#ah)"/>
<rect x="499.0" y="390.5" width="42.0" height="18" rx="4" fill="#ffffff"/>
<text x="520.0" y="403.5" text-anchor="middle" font-size="11" fill="#5b6472">brief</text>
<line x1="205" y1="470" x2="300" y2="385" stroke="#3a9b6e" stroke-width="2" stroke-dasharray="6 5" marker-end="url(#ah)"/>
<rect x="224.7" y="415.5" width="55.6" height="18" rx="4" fill="#ffffff"/>
<text x="252.5" y="428.5" text-anchor="middle" font-size="11" fill="#5b6472">summary</text>
<line x1="625" y1="470" x2="530" y2="385" stroke="#3a9b6e" stroke-width="2" stroke-dasharray="6 5" marker-end="url(#ah)"/>
<rect x="549.7" y="415.5" width="55.6" height="18" rx="4" fill="#ffffff"/>
<text x="577.5" y="428.5" text-anchor="middle" font-size="11" fill="#5b6472">summary</text>
<rect x="40" y="70" width="150" height="60" rx="12" fill="#ffffff" stroke="#1f2430" stroke-width="2"/>
<text x="115.0" y="105.25" text-anchor="middle" font-size="15" font-weight="400" fill="#1f2430">Goal</text>
<rect x="330" y="70" width="200" height="60" rx="12" fill="#f4f1ec" stroke="#1f2430" stroke-width="2"/>
<text x="430.0" y="96.25" text-anchor="middle" font-size="15" font-weight="700" fill="#1f2430">Gather context</text>
<text x="430.0" y="114.25" text-anchor="middle" font-size="15" font-weight="400" fill="#1f2430">(retrieve / read)</text>
<rect x="600" y="70" width="200" height="60" rx="12" fill="#f4f1ec" stroke="#1f2430" stroke-width="2"/>
<text x="700.0" y="96.25" text-anchor="middle" font-size="15" font-weight="700" fill="#1f2430">Take action</text>
<text x="700.0" y="114.25" text-anchor="middle" font-size="15" font-weight="400" fill="#1f2430">(call tools)</text>
<rect x="600" y="200" width="200" height="60" rx="12" fill="#f4f1ec" stroke="#1f2430" stroke-width="2"/>
<text x="700.0" y="226.25" text-anchor="middle" font-size="15" font-weight="700" fill="#1f2430">Verify work</text>
<text x="700.0" y="244.25" text-anchor="middle" font-size="15" font-weight="400" fill="#1f2430">(tests / critic)</text>
<rect x="330" y="200" width="200" height="60" rx="12" fill="#fbeae3" stroke="#d97757" stroke-width="2"/>
<text x="430.0" y="226.25" text-anchor="middle" font-size="15" font-weight="700" fill="#1f2430">Stop condition?</text>
<text x="430.0" y="244.25" text-anchor="middle" font-size="15" font-weight="400" fill="#1f2430">max iters / budget / done</text>
<rect x="40" y="200" width="150" height="60" rx="12" fill="#e7f3ec" stroke="#3a9b6e" stroke-width="2"/>
<text x="115.0" y="235.25" text-anchor="middle" font-size="15" font-weight="400" fill="#1f2430">Done ✓</text>
<rect x="300" y="330" width="230" height="55" rx="12" fill="#e8eefb" stroke="#3b6fd4" stroke-width="2"/>
<text x="415.0" y="353.75" text-anchor="middle" font-size="15" font-weight="700" fill="#1f2430">Orchestrator (lead agent)</text>
<text x="415.0" y="371.75" text-anchor="middle" font-size="15" font-weight="400" fill="#1f2430">plans • decomposes • synthesizes</text>
<rect x="120" y="420" width="170" height="50" rx="12" fill="#ffffff" stroke="#3b6fd4" stroke-width="2"/>
<text x="205.0" y="441.25" text-anchor="middle" font-size="15" font-weight="700" fill="#1f2430">Subagent A</text>
<text x="205.0" y="459.25" text-anchor="middle" font-size="15" font-weight="400" fill="#1f2430">own context</text>
<rect x="330" y="420" width="170" height="50" rx="12" fill="#ffffff" stroke="#3b6fd4" stroke-width="2"/>
<text x="415.0" y="441.25" text-anchor="middle" font-size="15" font-weight="700" fill="#1f2430">Subagent B</text>
<text x="415.0" y="459.25" text-anchor="middle" font-size="15" font-weight="400" fill="#1f2430">own context</text>
<rect x="540" y="420" width="170" height="50" rx="12" fill="#ffffff" stroke="#3b6fd4" stroke-width="2"/>
<text x="625.0" y="441.25" text-anchor="middle" font-size="15" font-weight="700" fill="#1f2430">Subagent C</text>
<text x="625.0" y="459.25" text-anchor="middle" font-size="15" font-weight="400" fill="#1f2430">own context</text>
</svg>